<svg id="Calque_1" data-name="Calque 1" xmlns="http://www.w3.org/2000/svg" viewBox="0 0 570.87 778.84"><defs><style>.cls-1{fill:none;stroke:#fff;stroke-miterlimit:10;stroke-width:28px;}</style></defs><rect x="539.71" y="422.49" width="28.68" height="141.87" transform="translate(-230.11 526.53) rotate(-45)"/><path d="M485.3,474.88h0v-462H456.62v462h0A35.85,35.85,0,1,1,420.78,439V410.34A64.53,64.53,0,1,0,485.3,475h0Z" transform="translate(-43.48 -9.77)"/><polyline points="413.14 452.26 418.68 434.78 521.91 331.55 542.19 351.82 441.75 452.26 441.82 452.26 441.82 778.84 413.14 778.84 413.14 452.26"/><path class="cls-1" d="M182.22,439.41l118.37,120m-37-202.13L159.32,462.84V786M108.4,425.15c-28.12,0-50.92,23.11-50.92,51.61s22.8,51.61,50.92,51.61,50.92-23.11,50.92-51.61V9.77" transform="translate(-43.48 -9.77)"/></svg>